<svg version="1.1" id="Layer_1" xmlns="http://www.w3.org/2000/svg" xmlns:xlink="http://www.w3.org/1999/xlink" x="0px" y="0px"
	 width="100%" viewBox="0 0 473 473" enable-background="new 0 0 473 473" xml:space="preserve">
<path fill="#333333" opacity="1.000000" stroke="none" 
	d="
M207.468658,474.000000 
	C203.990463,473.026154 201.047333,471.640839 197.961014,471.142700 
	C169.716980,466.583832 143.474640,456.657135 118.682091,442.490204 
	C100.799507,432.271729 84.877762,419.580994 70.007408,405.462036 
	C68.752136,404.270203 67.717941,402.845520 65.616936,400.412598 
	C74.398682,399.177490 81.845917,397.875458 89.349571,397.247955 
	C91.305557,397.084381 93.799423,398.613068 95.434784,400.057068 
	C126.288712,427.300232 162.213425,443.899872 202.627335,450.731415 
	C213.719757,452.606445 225.088181,453.928375 236.303848,453.760498 
	C256.901825,453.452118 277.306366,450.932953 297.246399,445.117249 
	C326.540100,436.573547 352.760834,422.375641 376.234283,403.063446 
	C396.206268,386.631927 412.141144,366.724792 425.196442,344.476379 
	C438.225067,322.273438 446.473480,298.262054 450.666809,272.987793 
	C455.928253,241.275665 454.152130,209.806656 445.413605,178.780136 
	C437.036530,149.036911 422.920074,122.243111 403.000366,98.756958 
	C369.661469,59.448990 327.593964,34.530224 276.771362,25.171156 
	C264.407990,22.894426 251.713028,21.160122 239.188202,21.266026 
	C207.661850,21.532598 177.160553,27.405783 148.280518,40.795712 
	C123.862213,52.117004 102.014709,67.027603 83.293808,86.295784 
	C52.713497,117.770073 32.839611,155.011520 25.152462,198.340317 
	C22.955505,210.723465 21.200768,223.396988 21.270805,235.926025 
	C21.413506,261.453217 25.198349,286.565094 34.218277,310.675751 
	C34.924484,312.563446 35.604210,315.190338 34.841434,316.772156 
	C31.540886,323.616577 27.699286,330.200104 24.054504,336.878540 
	C23.489338,336.951538 22.924171,337.024536 22.359003,337.097534 
	C19.881868,331.124207 16.750362,325.330139 15.055225,319.142578 
	C10.674174,303.150848 6.936028,286.983154 2.903619,270.895142 
	C2.674365,269.980469 2.108671,269.150085 1.349778,268.140259 
	C1.000000,247.979111 1.000000,227.958206 1.349771,207.328400 
	C2.108220,205.851181 2.698182,205.022491 2.897901,204.108551 
	C5.233256,193.421814 6.895819,182.545792 9.909554,172.056946 
	C22.250183,129.107269 44.796947,92.439415 78.025177,62.321384 
	C96.634865,45.453587 117.132439,31.690083 140.050674,21.427986 
	C158.628510,13.109395 177.848938,7.065178 197.970444,3.850716 
	C201.053421,3.358204 203.993713,1.972567 207.000000,1.000000 
	C227.020889,1.000000 247.041794,1.000000 267.671814,1.349676 
	C269.648712,2.144839 270.985809,2.796612 272.388855,3.005582 
	C305.590332,7.950644 336.371460,19.512121 364.649078,37.468525 
	C387.539154,52.003834 407.423035,69.916611 424.145599,91.437752 
	C448.735809,123.084076 464.455719,158.478043 471.139435,197.961884 
	C471.661774,201.047592 473.026703,203.990646 474.000000,207.000000 
	C474.000000,227.020889 474.000000,247.041794 473.650208,267.671509 
	C472.853577,269.647614 472.200195,270.983948 471.990143,272.386627 
	C466.916718,306.269196 454.972351,337.552399 436.391296,366.296539 
	C422.021057,388.526764 404.471985,407.813446 383.537354,424.136261 
	C351.936676,448.775452 316.517242,464.458893 277.036316,471.137695 
	C273.951080,471.659637 271.008759,473.026062 268.000000,474.000000 
	C247.979111,474.000000 227.958206,474.000000 207.468658,474.000000 
z"/>
<path fill="#333333" opacity="1.000000" stroke="none" 
	d="
M224.378448,98.596527 
	C225.336212,112.775459 226.711960,126.521996 226.809769,140.277634 
	C226.875534,149.526550 228.016144,158.085617 232.953873,166.019775 
	C234.588058,168.645630 235.707047,171.592087 237.749557,174.544617 
	C240.726730,165.691818 248.441284,158.806931 247.946396,148.751938 
	C246.637375,122.155663 250.648499,96.051323 254.762985,69.939857 
	C255.346634,66.235909 255.743256,62.502483 256.226440,58.782703 
	C256.645935,58.770321 257.065460,58.757935 257.484955,58.745552 
	C258.290680,64.175179 259.003845,69.620445 259.918060,75.031738 
	C264.085236,99.697250 265.935669,124.506798 265.113708,149.530441 
	C265.008972,152.719376 265.963898,156.136200 267.191223,159.135071 
	C269.644592,165.129715 272.190796,171.167923 275.496246,176.712677 
	C280.132446,184.489807 281.443848,192.634247 281.109528,201.530304 
	C280.665558,213.343979 281.214050,225.192566 280.902588,237.014725 
	C280.765076,242.233643 282.264862,246.011993 286.064484,249.736374 
	C305.102448,268.397552 323.805359,287.400085 342.753357,306.153992 
	C345.676666,309.047394 347.116699,311.968872 347.082611,316.191071 
	C346.899719,338.850586 347.014465,361.512390 346.983124,384.173309 
	C346.973480,391.163422 346.169983,391.927063 339.202881,391.988586 
	C300.575439,392.329651 261.948395,392.752350 223.320206,392.963898 
	C194.994812,393.119049 166.667877,393.005341 138.341644,392.984100 
	C129.200058,392.977234 128.008163,391.752869 128.004486,382.562805 
	C127.995544,360.235077 128.066650,337.906982 127.943207,315.579926 
	C127.923172,311.956757 129.055389,309.331116 131.619461,306.788025 
	C151.139603,287.427765 170.497482,267.903748 190.032761,248.558853 
	C192.854965,245.764160 194.116623,242.893768 194.068985,238.906937 
	C193.889847,223.912857 193.875534,208.913422 194.100128,193.920502 
	C194.150909,190.529495 194.972946,186.985367 196.212418,183.813583 
	C198.326187,178.404526 200.604294,172.961365 203.618591,168.024139 
	C208.957565,159.279160 210.722931,150.042938 210.073380,139.919724 
	C208.453079,114.667351 212.937210,89.910912 216.744385,65.114403 
	C216.920685,63.966194 216.894760,62.788273 217.029358,61.631912 
	C217.138168,60.696953 217.347061,59.773640 217.511551,58.845161 
	C217.940079,58.812099 218.368607,58.779034 218.797134,58.745972 
	C220.615616,71.886650 222.434097,85.027328 224.378448,98.596527 
z"/>
</svg>