<?xml version="1.0" standalone="no"?>
<svg xmlns:xlink="http://www.w3.org/1999/xlink" id="wave" style="transform:rotate(0deg); transition: 0.3s" viewBox="0 0 1440 340" version="1.1" xmlns="http://www.w3.org/2000/svg"><defs><linearGradient id="sw-gradient-0" x1="0" x2="0" y1="1" y2="0"><stop stop-color="rgba(247, 247, 247, 1)" offset="0%"/><stop stop-color="rgba(247, 247, 247, 1)" offset="100%"/></linearGradient></defs><path style="transform:translate(0, 0px); opacity:1" fill="url(#sw-gradient-0)" d="M0,34L26.7,45.3C53.3,57,107,79,160,90.7C213.3,102,267,102,320,90.7C373.3,79,427,57,480,79.3C533.3,102,587,170,640,164.3C693.3,159,747,79,800,51C853.3,23,907,45,960,73.7C1013.3,102,1067,136,1120,175.7C1173.3,215,1227,261,1280,238C1333.3,215,1387,125,1440,73.7C1493.3,23,1547,11,1600,11.3C1653.3,11,1707,23,1760,73.7C1813.3,125,1867,215,1920,221C1973.3,227,2027,147,2080,130.3C2133.3,113,2187,159,2240,198.3C2293.3,238,2347,272,2400,255C2453.3,238,2507,170,2560,136C2613.3,102,2667,102,2720,90.7C2773.3,79,2827,57,2880,90.7C2933.3,125,2987,215,3040,215.3C3093.3,215,3147,125,3200,102C3253.3,79,3307,125,3360,147.3C3413.3,170,3467,170,3520,147.3C3573.3,125,3627,79,3680,90.7C3733.3,102,3787,170,3813,204L3840,238L3840,340L3813.3,340C3786.7,340,3733,340,3680,340C3626.7,340,3573,340,3520,340C3466.7,340,3413,340,3360,340C3306.7,340,3253,340,3200,340C3146.7,340,3093,340,3040,340C2986.7,340,2933,340,2880,340C2826.7,340,2773,340,2720,340C2666.7,340,2613,340,2560,340C2506.7,340,2453,340,2400,340C2346.7,340,2293,340,2240,340C2186.7,340,2133,340,2080,340C2026.7,340,1973,340,1920,340C1866.7,340,1813,340,1760,340C1706.7,340,1653,340,1600,340C1546.7,340,1493,340,1440,340C1386.7,340,1333,340,1280,340C1226.7,340,1173,340,1120,340C1066.7,340,1013,340,960,340C906.7,340,853,340,800,340C746.7,340,693,340,640,340C586.7,340,533,340,480,340C426.7,340,373,340,320,340C266.7,340,213,340,160,340C106.7,340,53,340,27,340L0,340Z"/></svg>